<svg xmlns="http://www.w3.org/2000/svg" viewBox="312 717.552 300 157.895" xml:space="preserve"><!-- Country Flags - https://www.countryflags.com License - https://www.countryflags.com/license-agreement. Changes were made to this file by Nicolas Flamel --><switch><g><path fill="#FFF" d="M312 717.552h300v157.895H312z"/><path fill="#B22234" d="M312 717.552h300v12.146H312zM312 741.844h300v12.146H312zM312 766.135h300v12.146H312zM312 790.427h300v12.146H312zM312 814.718h300v12.146H312zM312 839.01h300v12.146H312zM312 863.301h300v12.146H312z"/><path fill="#3C3B6E" d="M312 717.552h120v85.02H312z"/><path fill="#FFF" d="m317.638 724.454 2.859 2.077-1.092 3.361 2.858-2.077 2.859 2.077-1.092-3.361 2.858-2.077h-3.533l-1.092-3.36-1.092 3.36zM337.533 724.454l2.858 2.077-1.092 3.361 2.859-2.077 2.859 2.077-1.092-3.361 2.858-2.077h-3.533l-1.092-3.36-1.092 3.36zM357.428 724.454l2.858 2.077-1.092 3.361 2.859-2.077 2.858 2.077-1.092-3.361 2.859-2.077h-3.533l-1.092-3.36-1.092 3.36zM377.323 724.454l2.858 2.077-1.092 3.361 2.859-2.077 2.858 2.077-1.092-3.361 2.859-2.077h-3.534l-1.091-3.36-1.092 3.36zM397.217 724.454l2.859 2.077-1.092 3.361 2.858-2.077 2.859 2.077-1.092-3.361 2.858-2.077h-3.533l-1.092-3.36-1.092 3.36zM417.112 724.454l2.858 2.077-1.092 3.361 2.859-2.077 2.858 2.077-1.092-3.361 2.859-2.077h-3.533l-1.092-3.36-1.092 3.36zM327.585 732.981l2.859 2.077-1.092 3.36 2.859-2.077 2.858 2.077-1.092-3.36 2.859-2.077h-3.534l-1.091-3.361-1.092 3.361zM347.48 732.981l2.859 2.077-1.092 3.36 2.858-2.077 2.859 2.077-1.092-3.36 2.858-2.077h-3.533l-1.092-3.361-1.092 3.361zM367.375 732.981l2.859 2.077-1.092 3.36 2.858-2.077 2.859 2.077-1.092-3.36 2.858-2.077h-3.533L372 729.62l-1.092 3.361zM387.27 732.981l2.858 2.077-1.092 3.36 2.859-2.077 2.858 2.077-1.092-3.36 2.859-2.077h-3.533l-1.092-3.361-1.092 3.361zM407.164 732.981l2.859 2.077-1.092 3.36 2.858-2.077 2.859 2.077-1.092-3.36 2.858-2.077h-3.533l-1.092-3.361-1.091 3.361zM317.638 741.507l2.859 2.077-1.092 3.361 2.858-2.077 2.859 2.077-1.092-3.361 2.858-2.077h-3.533l-1.092-3.36-1.092 3.36zM337.533 741.507l2.858 2.077-1.092 3.361 2.859-2.077 2.859 2.077-1.092-3.361 2.858-2.077h-3.533l-1.092-3.36-1.092 3.36zM357.428 741.507l2.858 2.077-1.092 3.361 2.859-2.077 2.858 2.077-1.092-3.361 2.859-2.077h-3.533l-1.092-3.36-1.092 3.36zM377.323 741.507l2.858 2.077-1.092 3.361 2.859-2.077 2.858 2.077-1.092-3.361 2.859-2.077h-3.534l-1.091-3.36-1.092 3.36zM397.217 741.507l2.859 2.077-1.092 3.361 2.858-2.077 2.859 2.077-1.092-3.361 2.858-2.077h-3.533l-1.092-3.36-1.092 3.36zM417.112 741.507l2.858 2.077-1.092 3.361 2.859-2.077 2.858 2.077-1.092-3.361 2.859-2.077h-3.533l-1.092-3.36-1.092 3.36zM327.831 750.062l2.858 2.077-1.091 3.36 2.858-2.077 2.859 2.077-1.092-3.361 2.858-2.076h-3.533l-1.092-3.361-1.092 3.361zM347.726 750.062l2.858 2.077-1.092 3.36 2.859-2.077 2.858 2.077-1.092-3.361 2.859-2.076h-3.533l-1.092-3.361-1.092 3.361zM367.621 750.062l2.858 2.077-1.092 3.36 2.859-2.077 2.858 2.077-1.092-3.361 2.859-2.076h-3.534l-1.091-3.361-1.092 3.361zM387.515 750.062l2.859 2.077-1.092 3.36 2.858-2.077 2.859 2.077-1.092-3.361 2.858-2.076h-3.533l-1.092-3.361-1.092 3.361zM407.41 750.062l2.858 2.077-1.092 3.36 2.859-2.077 2.858 2.077-1.092-3.361 2.859-2.076h-3.533l-1.092-3.361-1.092 3.361zM317.94 758.517l2.859 2.076-1.092 3.361 2.858-2.077 2.859 2.077-1.092-3.361 2.858-2.076h-3.533l-1.092-3.361-1.092 3.361zM337.835 758.517l2.858 2.076-1.092 3.361 2.859-2.077 2.858 2.077-1.091-3.361 2.858-2.076h-3.533l-1.092-3.361-1.092 3.361zM357.73 758.517l2.858 2.076-1.092 3.361 2.859-2.077 2.858 2.077-1.092-3.361 2.859-2.076h-3.533l-1.092-3.361-1.092 3.361zM377.624 758.517l2.859 2.076-1.092 3.361 2.858-2.077 2.859 2.077-1.092-3.361 2.859-2.076h-3.534l-1.092-3.361-1.091 3.361zM397.519 758.517l2.858 2.076-1.091 3.361 2.858-2.077 2.859 2.077-1.092-3.361 2.858-2.076h-3.533l-1.092-3.361-1.092 3.361zM417.414 758.517l2.858 2.076-1.092 3.361 2.859-2.077 2.858 2.077-1.092-3.361 2.859-2.076h-3.533l-1.092-3.361-1.092 3.361zM318.127 775.299l2.858 2.077-1.092 3.361 2.859-2.077 2.858 2.077-1.092-3.361 2.859-2.077h-3.533l-1.092-3.36-1.092 3.36zM338.021 775.299l2.859 2.077-1.092 3.361 2.858-2.077 2.859 2.077-1.092-3.361 2.858-2.077h-3.533l-1.092-3.36-1.092 3.36zM357.916 775.299l2.858 2.077-1.091 3.361 2.858-2.077 2.859 2.077-1.092-3.361 2.858-2.077h-3.533l-1.092-3.36-1.092 3.36zM377.811 775.299l2.858 2.077-1.092 3.361 2.859-2.077 2.858 2.077-1.091-3.361 2.858-2.077h-3.533l-1.092-3.36-1.092 3.36zM397.705 775.299l2.859 2.077-1.092 3.361 2.858-2.077 2.859 2.077-1.092-3.361 2.859-2.077h-3.534l-1.092-3.36-1.091 3.36zM417.6 775.299l2.858 2.077-1.091 3.361 2.858-2.077 2.859 2.077-1.092-3.361 2.858-2.077h-3.533l-1.092-3.36-1.092 3.36zM317.884 792.279l2.858 2.077-1.092 3.361 2.859-2.077 2.858 2.077-1.092-3.361 2.859-2.077H323.6l-1.091-3.36-1.092 3.36zM337.778 792.279l2.859 2.077-1.092 3.361 2.858-2.077 2.859 2.077-1.092-3.361 2.858-2.077h-3.533l-1.092-3.36-1.092 3.36zM357.673 792.279l2.858 2.077-1.091 3.361 2.858-2.077 2.859 2.077-1.092-3.361 2.858-2.077h-3.533l-1.092-3.36-1.092 3.36zM377.568 792.279l2.858 2.077-1.092 3.361 2.859-2.077 2.858 2.077-1.091-3.361 2.858-2.077h-3.533l-1.092-3.36-1.092 3.36zM397.462 792.279l2.859 2.077-1.092 3.361 2.858-2.077 2.859 2.077-1.092-3.361 2.859-2.077h-3.534l-1.092-3.36-1.091 3.36zM417.357 792.279l2.858 2.077-1.091 3.361 2.858-2.077 2.859 2.077-1.092-3.361 2.858-2.077h-3.533l-1.092-3.36-1.092 3.36zM327.89 766.824l2.858 2.077-1.091 3.36 2.858-2.077 2.859 2.077-1.092-3.36 2.858-2.077h-3.533l-1.092-3.361-1.092 3.361zM347.785 766.824l2.858 2.077-1.092 3.36 2.859-2.077 2.858 2.077-1.091-3.36 2.858-2.077h-3.533l-1.092-3.361-1.092 3.361zM367.68 766.824l2.858 2.077-1.092 3.36 2.859-2.077 2.858 2.077-1.092-3.36 2.859-2.077h-3.533l-1.092-3.361-1.092 3.361zM387.574 766.824l2.859 2.077-1.092 3.36 2.858-2.077 2.859 2.077-1.092-3.36 2.858-2.077h-3.533l-1.092-3.361-1.092 3.361zM407.469 766.824l2.858 2.077-1.092 3.36 2.859-2.077 2.858 2.077-1.091-3.36 2.858-2.077h-3.533l-1.092-3.361-1.092 3.361zM327.831 783.777l2.859 2.077-1.092 3.361 2.858-2.077 2.859 2.077-1.092-3.361 2.858-2.077h-3.533l-1.092-3.36-1.092 3.36zM347.726 783.777l2.858 2.077-1.092 3.361 2.859-2.077 2.859 2.077-1.092-3.361 2.858-2.077h-3.533l-1.092-3.36-1.092 3.36zM367.621 783.777l2.858 2.077-1.092 3.361 2.859-2.077 2.858 2.077-1.092-3.361 2.859-2.077h-3.533l-1.092-3.36-1.092 3.36zM387.515 783.777l2.859 2.077-1.092 3.361 2.858-2.077 2.859 2.077-1.092-3.361 2.858-2.077h-3.533l-1.092-3.36-1.092 3.36zM407.41 783.777l2.858 2.077-1.092 3.361 2.859-2.077 2.858 2.077-1.091-3.361 2.858-2.077h-3.533l-1.092-3.36-1.092 3.36z"/></g></switch></svg>
