<svg xmlns="http://www.w3.org/2000/svg" viewBox="0 0 128 128"><defs><linearGradient id="a" x1="1" y1="64" x2="127" y2="64" gradientUnits="userSpaceOnUse"><stop offset="0" stop-color="#9e00e7"/><stop offset="1" stop-color="#3600c9"/></linearGradient></defs><g data-name="Layer 2"><g data-name="App Icon Small"><path style="fill:none" d="M0 0h128v128H0z"/><circle cx="64" cy="64" r="63" style="fill:url(#a)"/><g data-name="Layer 1"><g data-name="Layer 2"><path d="M64.15 60.21a4.51 4.51 0 0 1-3.15-1.4s-9.94-10-13.07-13.16-6.81 0-6.81 0l-14.86 15a4.78 4.78 0 0 0 0 6.8l14.86 15s3.68 3.13 6.81 0S61 69.2 61 69.2a4.46 4.46 0 0 1 3.14-1.4h-.29A4.46 4.46 0 0 1 67 69.2s9.94 10 13.07 13.16 6.81 0 6.81 0l14.86-15a4.8 4.8 0 0 0 0-6.8l-14.86-15s-3.68-3.13-6.81 0S67 58.81 67 58.81a4.51 4.51 0 0 1-3.14 1.4" style="fill:#fff" data-name="Layer 3"/></g></g></g></g></svg>